<mxfile host="drawio-plugin" modified="2021-11-07T02:49:53.897Z" agent="5.0 (Macintosh; Intel Mac OS X 11_6_0) AppleWebKit/537.36 (KHTML, like Gecko) Chrome/89.0.4389.114 Safari/537.36" etag="Tb4pZspBpwNNvR7ckJTZ" version="14.7.4" type="embed" pages="2"><diagram id="vsHXQxv7kHNjlC5FjtWA" name="DER"><mxGraphModel dx="2787" dy="1884" grid="1" gridSize="10" guides="1" tooltips="1" connect="1" arrows="1" fold="1" page="1" pageScale="1" pageWidth="850" pageHeight="1100" math="0" shadow="0"><root><mxCell id="0"/><mxCell id="1" parent="0"/><mxCell id="ZgPAx6OOPj1dVpzJJ2Iv-147" value="" style="group" parent="1" vertex="1" connectable="0"><mxGeometry x="-1086" y="-1090" width="1320" height="1010.98" as="geometry"/></mxCell><mxCell id="GvcpjSRphl_7P4JvngsX-12" value="chequeoMedico" style="rounded=1;arcSize=10;whiteSpace=wrap;html=1;align=center;" parent="ZgPAx6OOPj1dVpzJJ2Iv-147" vertex="1"><mxGeometry x="372.20003258782776" y="889.6391845790796" width="86.01316264868197" height="38.9057537234521" as="geometry"/></mxCell><mxCell id="ZgPAx6OOPj1dVpzJJ2Iv-111" style="edgeStyle=orthogonalEdgeStyle;rounded=0;orthogonalLoop=1;jettySize=auto;html=1;entryX=1;entryY=0.5;entryDx=0;entryDy=0;endArrow=none;endFill=0;" parent="ZgPAx6OOPj1dVpzJJ2Iv-147" source="GvcpjSRphl_7P4JvngsX-13" target="GvcpjSRphl_7P4JvngsX-12" edge="1"><mxGeometry y="62.36545631153422" as="geometry"/></mxCell><mxCell id="FrlxWMnYt9ofsfjpKhjb-3" style="edgeStyle=orthogonalEdgeStyle;rounded=0;orthogonalLoop=1;jettySize=auto;html=1;entryX=0;entryY=0.5;entryDx=0;entryDy=0;" parent="ZgPAx6OOPj1dVpzJJ2Iv-147" source="GvcpjSRphl_7P4JvngsX-13" target="FrlxWMnYt9ofsfjpKhjb-2" edge="1"><mxGeometry relative="1" as="geometry"/></mxCell><mxCell id="FrlxWMnYt9ofsfjpKhjb-4" style="edgeStyle=orthogonalEdgeStyle;rounded=0;orthogonalLoop=1;jettySize=auto;html=1;entryX=0.5;entryY=0;entryDx=0;entryDy=0;" parent="ZgPAx6OOPj1dVpzJJ2Iv-147" source="GvcpjSRphl_7P4JvngsX-13" target="FrlxWMnYt9ofsfjpKhjb-1" edge="1"><mxGeometry relative="1" as="geometry"><Array as="points"><mxPoint x="733" y="950"/><mxPoint x="881" y="950"/></Array></mxGeometry></mxCell><mxCell id="GvcpjSRphl_7P4JvngsX-13" value="centrosMedicos" style="rounded=1;arcSize=10;whiteSpace=wrap;html=1;align=center;" parent="ZgPAx6OOPj1dVpzJJ2Iv-147" vertex="1"><mxGeometry x="689.6042362782424" y="889.6348533438335" width="86.55737704918033" height="35.27987982444149" as="geometry"/></mxCell><mxCell id="GvcpjSRphl_7P4JvngsX-53" value="" style="group" parent="ZgPAx6OOPj1dVpzJJ2Iv-147" vertex="1" connectable="0"><mxGeometry x="445.7704918032787" y="299.87897850775255" width="434.2569386465041" height="211.67927894664888" as="geometry"/></mxCell><mxCell id="ZgPAx6OOPj1dVpzJJ2Iv-71" value="se le asigna" style="shape=rhombus;perimeter=rhombusPerimeter;whiteSpace=wrap;html=1;align=center;" parent="GvcpjSRphl_7P4JvngsX-53" vertex="1"><mxGeometry x="151.47540983606558" y="123.4795793855452" width="103.8688524590164" height="52.91981973666222" as="geometry"/></mxCell><mxCell id="ZgPAx6OOPj1dVpzJJ2Iv-43" value="tienen" style="shape=rhombus;perimeter=rhombusPerimeter;whiteSpace=wrap;html=1;align=center;" parent="GvcpjSRphl_7P4JvngsX-53" vertex="1"><mxGeometry x="330.3880861874878" y="132.72700288559994" width="103.8688524590164" height="52.91981973666222" as="geometry"/></mxCell><mxCell id="GvcpjSRphl_7P4JvngsX-65" value="" style="group" parent="ZgPAx6OOPj1dVpzJJ2Iv-147" vertex="1" connectable="0"><mxGeometry x="181.77049180327867" y="185.21936907831775" width="380.8524590163934" height="167.57942916609704" as="geometry"/></mxCell><mxCell id="GvcpjSRphl_7P4JvngsX-54" value="Cabina" style="rounded=1;arcSize=10;whiteSpace=wrap;html=1;align=center;" parent="GvcpjSRphl_7P4JvngsX-65" vertex="1"><mxGeometry x="121.18032786885244" width="86.55737704918033" height="35.27987982444149" as="geometry"/></mxCell><mxCell id="GvcpjSRphl_7P4JvngsX-55" value="suite" style="rounded=1;arcSize=10;whiteSpace=wrap;html=1;align=center;" parent="GvcpjSRphl_7P4JvngsX-65" vertex="1"><mxGeometry x="242.3606557377049" y="132.29954934165556" width="86.55737704918033" height="35.27987982444149" as="geometry"/></mxCell><mxCell id="GvcpjSRphl_7P4JvngsX-56" value="familiar&amp;nbsp;" style="rounded=1;arcSize=10;whiteSpace=wrap;html=1;align=center;" parent="GvcpjSRphl_7P4JvngsX-65" vertex="1"><mxGeometry x="121.18032786885244" y="132.29954934165556" width="86.55737704918033" height="35.27987982444149" as="geometry"/></mxCell><mxCell id="GvcpjSRphl_7P4JvngsX-57" value="general" style="rounded=1;arcSize=10;whiteSpace=wrap;html=1;align=center;" parent="GvcpjSRphl_7P4JvngsX-65" vertex="1"><mxGeometry y="132.29954934165556" width="86.55737704918033" height="35.27987982444149" as="geometry"/></mxCell><mxCell id="GvcpjSRphl_7P4JvngsX-62" style="edgeStyle=orthogonalEdgeStyle;rounded=0;orthogonalLoop=1;jettySize=auto;html=1;endArrow=none;endFill=0;" parent="GvcpjSRphl_7P4JvngsX-65" source="GvcpjSRphl_7P4JvngsX-60" target="GvcpjSRphl_7P4JvngsX-55" edge="1"><mxGeometry relative="1" as="geometry"/></mxCell><mxCell id="GvcpjSRphl_7P4JvngsX-63" value="" style="edgeStyle=orthogonalEdgeStyle;rounded=0;orthogonalLoop=1;jettySize=auto;html=1;endArrow=none;endFill=0;" parent="GvcpjSRphl_7P4JvngsX-65" source="GvcpjSRphl_7P4JvngsX-60" target="GvcpjSRphl_7P4JvngsX-56" edge="1"><mxGeometry relative="1" as="geometry"/></mxCell><mxCell id="GvcpjSRphl_7P4JvngsX-64" style="edgeStyle=orthogonalEdgeStyle;rounded=0;orthogonalLoop=1;jettySize=auto;html=1;endArrow=none;endFill=0;" parent="GvcpjSRphl_7P4JvngsX-65" source="GvcpjSRphl_7P4JvngsX-60" target="GvcpjSRphl_7P4JvngsX-57" edge="1"><mxGeometry relative="1" as="geometry"/></mxCell><mxCell id="ZgPAx6OOPj1dVpzJJ2Iv-63" value="" style="edgeStyle=orthogonalEdgeStyle;rounded=0;orthogonalLoop=1;jettySize=auto;html=1;endArrow=none;endFill=0;" parent="GvcpjSRphl_7P4JvngsX-65" source="GvcpjSRphl_7P4JvngsX-60" target="GvcpjSRphl_7P4JvngsX-54" edge="1"><mxGeometry relative="1" as="geometry"/></mxCell><mxCell id="GvcpjSRphl_7P4JvngsX-60" value="Tipo" style="whiteSpace=wrap;html=1;align=center;" parent="GvcpjSRphl_7P4JvngsX-65" vertex="1"><mxGeometry x="129.83606557377047" y="61.7397896927726" width="69.24590163934425" height="35.27987982444149" as="geometry"/></mxCell><mxCell id="GvcpjSRphl_7P4JvngsX-61" value="" style="edgeStyle=orthogonalEdgeStyle;rounded=0;orthogonalLoop=1;jettySize=auto;html=1;endArrow=none;endFill=0;" parent="GvcpjSRphl_7P4JvngsX-65" source="GvcpjSRphl_7P4JvngsX-54" target="GvcpjSRphl_7P4JvngsX-60" edge="1"><mxGeometry relative="1" as="geometry"/></mxCell><mxCell id="ZgPAx6OOPj1dVpzJJ2Iv-55" style="edgeStyle=orthogonalEdgeStyle;rounded=0;orthogonalLoop=1;jettySize=auto;html=1;exitX=0.5;exitY=1;exitDx=0;exitDy=0;endArrow=none;endFill=0;" parent="GvcpjSRphl_7P4JvngsX-65" source="GvcpjSRphl_7P4JvngsX-57" target="GvcpjSRphl_7P4JvngsX-57" edge="1"><mxGeometry relative="1" as="geometry"/></mxCell><mxCell id="ZgPAx6OOPj1dVpzJJ2Iv-116" value="" style="edgeStyle=orthogonalEdgeStyle;rounded=0;orthogonalLoop=1;jettySize=auto;html=1;endArrow=none;endFill=0;" parent="GvcpjSRphl_7P4JvngsX-65" source="ZgPAx6OOPj1dVpzJJ2Iv-53" target="GvcpjSRphl_7P4JvngsX-54" edge="1"><mxGeometry relative="1" as="geometry"/></mxCell><mxCell id="ZgPAx6OOPj1dVpzJJ2Iv-53" value="tienen" style="shape=rhombus;perimeter=rhombusPerimeter;whiteSpace=wrap;html=1;align=center;" parent="GvcpjSRphl_7P4JvngsX-65" vertex="1"><mxGeometry x="276.983606557377" y="-8.819969956110372" width="103.86885245901638" height="52.91981973666222" as="geometry"/></mxCell><mxCell id="GvcpjSRphl_7P4JvngsX-79" value="" style="group" parent="ZgPAx6OOPj1dVpzJJ2Iv-147" vertex="1" connectable="0"><mxGeometry y="546.838137278843" width="298.62295081967216" height="158.75945920998666" as="geometry"/></mxCell><mxCell id="GvcpjSRphl_7P4JvngsX-72" value="spa" style="rounded=1;arcSize=10;whiteSpace=wrap;html=1;align=center;" parent="GvcpjSRphl_7P4JvngsX-79" vertex="1"><mxGeometry x="212.0655737704918" y="123.4795793855452" width="86.55737704918033" height="35.27987982444149" as="geometry"/></mxCell><mxCell id="GvcpjSRphl_7P4JvngsX-78" value="" style="group" parent="GvcpjSRphl_7P4JvngsX-79" vertex="1" connectable="0"><mxGeometry width="190.4262295081967" height="158.75945920998666" as="geometry"/></mxCell><mxCell id="GvcpjSRphl_7P4JvngsX-69" value="Servicio" style="rounded=1;arcSize=10;whiteSpace=wrap;html=1;align=center;" parent="GvcpjSRphl_7P4JvngsX-78" vertex="1"><mxGeometry x="103.86885245901638" width="86.55737704918033" height="35.27987982444149" as="geometry"/></mxCell><mxCell id="GvcpjSRphl_7P4JvngsX-70" value="Standard&amp;nbsp;" style="rounded=1;arcSize=10;whiteSpace=wrap;html=1;align=center;" parent="GvcpjSRphl_7P4JvngsX-78" vertex="1"><mxGeometry y="123.4795793855452" width="86.55737704918033" height="35.27987982444149" as="geometry"/></mxCell><mxCell id="GvcpjSRphl_7P4JvngsX-71" value="Gourmet&amp;nbsp;" style="rounded=1;arcSize=10;whiteSpace=wrap;html=1;align=center;" parent="GvcpjSRphl_7P4JvngsX-78" vertex="1"><mxGeometry x="103.86885245901638" y="123.4795793855452" width="86.55737704918033" height="35.27987982444149" as="geometry"/></mxCell><mxCell id="GvcpjSRphl_7P4JvngsX-75" value="" style="edgeStyle=orthogonalEdgeStyle;rounded=0;orthogonalLoop=1;jettySize=auto;html=1;endArrow=none;endFill=0;" parent="GvcpjSRphl_7P4JvngsX-78" source="GvcpjSRphl_7P4JvngsX-73" target="GvcpjSRphl_7P4JvngsX-71" edge="1"><mxGeometry relative="1" as="geometry"/></mxCell><mxCell id="GvcpjSRphl_7P4JvngsX-77" style="edgeStyle=orthogonalEdgeStyle;rounded=0;orthogonalLoop=1;jettySize=auto;html=1;entryX=0.5;entryY=0;entryDx=0;entryDy=0;endArrow=none;endFill=0;" parent="GvcpjSRphl_7P4JvngsX-78" source="GvcpjSRphl_7P4JvngsX-73" target="GvcpjSRphl_7P4JvngsX-70" edge="1"><mxGeometry relative="1" as="geometry"/></mxCell><mxCell id="GvcpjSRphl_7P4JvngsX-73" value="Tipo" style="whiteSpace=wrap;html=1;align=center;" parent="GvcpjSRphl_7P4JvngsX-78" vertex="1"><mxGeometry x="112.52459016393442" y="61.7397896927726" width="69.24590163934425" height="35.27987982444149" as="geometry"/></mxCell><mxCell id="GvcpjSRphl_7P4JvngsX-74" value="" style="edgeStyle=orthogonalEdgeStyle;rounded=0;orthogonalLoop=1;jettySize=auto;html=1;endArrow=none;endFill=0;" parent="GvcpjSRphl_7P4JvngsX-78" source="GvcpjSRphl_7P4JvngsX-69" target="GvcpjSRphl_7P4JvngsX-73" edge="1"><mxGeometry relative="1" as="geometry"/></mxCell><mxCell id="GvcpjSRphl_7P4JvngsX-76" style="edgeStyle=orthogonalEdgeStyle;rounded=0;orthogonalLoop=1;jettySize=auto;html=1;entryX=0.5;entryY=0;entryDx=0;entryDy=0;endArrow=none;endFill=0;" parent="GvcpjSRphl_7P4JvngsX-79" source="GvcpjSRphl_7P4JvngsX-73" target="GvcpjSRphl_7P4JvngsX-72" edge="1"><mxGeometry relative="1" as="geometry"/></mxCell><mxCell id="ZgPAx6OOPj1dVpzJJ2Iv-5" value="cliente" style="rounded=1;arcSize=10;whiteSpace=wrap;html=1;align=center;" parent="ZgPAx6OOPj1dVpzJJ2Iv-147" vertex="1"><mxGeometry x="372.19672131147536" y="696.778965278159" width="86.55737704918033" height="35.27987982444149" as="geometry"/></mxCell><mxCell id="ZgPAx6OOPj1dVpzJJ2Iv-39" value="" style="edgeStyle=orthogonalEdgeStyle;rounded=0;orthogonalLoop=1;jettySize=auto;html=1;endArrow=none;endFill=0;" parent="ZgPAx6OOPj1dVpzJJ2Iv-147" source="GvcpjSRphl_7P4JvngsX-12" target="ZgPAx6OOPj1dVpzJJ2Iv-5" edge="1"><mxGeometry as="geometry"/></mxCell><mxCell id="ZgPAx6OOPj1dVpzJJ2Iv-13" value="se realiza&lt;br&gt;en" style="shape=rhombus;perimeter=rhombusPerimeter;whiteSpace=wrap;html=1;align=center;" parent="ZgPAx6OOPj1dVpzJJ2Iv-147" vertex="1"><mxGeometry x="502.03015012815064" y="881.910685905038" width="103.8688524590164" height="52.91981973666222" as="geometry"/></mxCell><mxCell id="ZgPAx6OOPj1dVpzJJ2Iv-21" value="codigoViajero" style="rounded=1;arcSize=10;whiteSpace=wrap;html=1;align=center;" parent="ZgPAx6OOPj1dVpzJJ2Iv-147" vertex="1"><mxGeometry x="243.1302208899589" y="917.9008095601416" width="86.55737704918033" height="35.27987982444149" as="geometry"/></mxCell><mxCell id="ZgPAx6OOPj1dVpzJJ2Iv-30" value="" style="edgeStyle=orthogonalEdgeStyle;rounded=0;orthogonalLoop=1;jettySize=auto;html=1;endArrow=none;endFill=0;" parent="ZgPAx6OOPj1dVpzJJ2Iv-147" source="ZgPAx6OOPj1dVpzJJ2Iv-22" target="ZgPAx6OOPj1dVpzJJ2Iv-21" edge="1"><mxGeometry y="62.36545631153422" as="geometry"/></mxCell><mxCell id="ZgPAx6OOPj1dVpzJJ2Iv-22" value="devuelve&amp;nbsp;" style="shape=rhombus;perimeter=rhombusPerimeter;whiteSpace=wrap;html=1;align=center;" parent="ZgPAx6OOPj1dVpzJJ2Iv-147" vertex="1"><mxGeometry x="364.7005435291967" y="958.0601802633377" width="103.8688524590164" height="52.91981973666222" as="geometry"/></mxCell><mxCell id="ZgPAx6OOPj1dVpzJJ2Iv-31" value="" style="edgeStyle=orthogonalEdgeStyle;rounded=0;orthogonalLoop=1;jettySize=auto;html=1;endArrow=none;endFill=0;" parent="ZgPAx6OOPj1dVpzJJ2Iv-147" source="GvcpjSRphl_7P4JvngsX-12" target="ZgPAx6OOPj1dVpzJJ2Iv-22" edge="1"><mxGeometry y="62.36545631153422" as="geometry"/></mxCell><mxCell id="ZgPAx6OOPj1dVpzJJ2Iv-23" value="codigo" style="ellipse;whiteSpace=wrap;html=1;align=center;fontStyle=4;" parent="ZgPAx6OOPj1dVpzJJ2Iv-147" vertex="1"><mxGeometry x="128.11239293255258" y="915.7759055483048" width="86.55737704918033" height="35.27987982444149" as="geometry"/></mxCell><mxCell id="ZgPAx6OOPj1dVpzJJ2Iv-25" value="" style="edgeStyle=orthogonalEdgeStyle;rounded=0;orthogonalLoop=1;jettySize=auto;html=1;endArrow=none;endFill=0;" parent="ZgPAx6OOPj1dVpzJJ2Iv-147" source="ZgPAx6OOPj1dVpzJJ2Iv-21" target="ZgPAx6OOPj1dVpzJJ2Iv-23" edge="1"><mxGeometry y="62.36545631153422" as="geometry"/></mxCell><mxCell id="ZgPAx6OOPj1dVpzJJ2Iv-24" value="nivelDeVuelo" style="ellipse;whiteSpace=wrap;html=1;align=center;" parent="ZgPAx6OOPj1dVpzJJ2Iv-147" vertex="1"><mxGeometry x="243.1302208899589" y="838.5225762000515" width="86.55737704918033" height="35.27987982444149" as="geometry"/></mxCell><mxCell id="ZgPAx6OOPj1dVpzJJ2Iv-26" value="" style="edgeStyle=orthogonalEdgeStyle;rounded=0;orthogonalLoop=1;jettySize=auto;html=1;endArrow=none;endFill=0;" parent="ZgPAx6OOPj1dVpzJJ2Iv-147" source="ZgPAx6OOPj1dVpzJJ2Iv-21" target="ZgPAx6OOPj1dVpzJJ2Iv-24" edge="1"><mxGeometry y="62.36545631153422" as="geometry"/></mxCell><mxCell id="ZgPAx6OOPj1dVpzJJ2Iv-27" value="cantidadTurnos" style="ellipse;whiteSpace=wrap;html=1;align=center;" parent="ZgPAx6OOPj1dVpzJJ2Iv-147" vertex="1"><mxGeometry x="738.7546149346322" y="966.8837727071085" width="86.55737704918033" height="35.27987982444149" as="geometry"/></mxCell><mxCell id="FrlxWMnYt9ofsfjpKhjb-1" value="imagen" style="ellipse;whiteSpace=wrap;html=1;align=center;" parent="ZgPAx6OOPj1dVpzJJ2Iv-147" vertex="1"><mxGeometry x="838.0046149346322" y="966.8837727071085" width="86.55737704918033" height="35.27987982444149" as="geometry"/></mxCell><mxCell id="ZgPAx6OOPj1dVpzJJ2Iv-109" value="" style="edgeStyle=orthogonalEdgeStyle;rounded=0;orthogonalLoop=1;jettySize=auto;html=1;endArrow=none;endFill=0;" parent="ZgPAx6OOPj1dVpzJJ2Iv-147" source="GvcpjSRphl_7P4JvngsX-13" target="ZgPAx6OOPj1dVpzJJ2Iv-27" edge="1"><mxGeometry x="31.766331106498466" y="118.35620058755785" as="geometry"/></mxCell><mxCell id="ZgPAx6OOPj1dVpzJJ2Iv-29" style="edgeStyle=orthogonalEdgeStyle;rounded=0;orthogonalLoop=1;jettySize=auto;html=1;exitX=0.5;exitY=1;exitDx=0;exitDy=0;endArrow=none;endFill=0;" parent="ZgPAx6OOPj1dVpzJJ2Iv-147" edge="1"><mxGeometry x="31.766331106498466" y="118.35620058755785" as="geometry"><mxPoint x="819.4384622540393" y="850.4137069447187" as="sourcePoint"/><mxPoint x="819.4384622540393" y="850.4137069447187" as="targetPoint"/></mxGeometry></mxCell><mxCell id="ZgPAx6OOPj1dVpzJJ2Iv-36" value="escala" style="ellipse;whiteSpace=wrap;html=1;align=center;" parent="ZgPAx6OOPj1dVpzJJ2Iv-147" vertex="1"><mxGeometry x="1071.5339332079604" y="705.6016127251488" width="86.55737704918033" height="35.27987982444149" as="geometry"/></mxCell><mxCell id="ZgPAx6OOPj1dVpzJJ2Iv-40" value="destinos" style="rounded=1;arcSize=10;whiteSpace=wrap;html=1;align=center;" parent="ZgPAx6OOPj1dVpzJJ2Iv-147" vertex="1"><mxGeometry x="1107.9344262295083" y="467.45840767384965" width="86.55737704918033" height="35.27987982444149" as="geometry"/></mxCell><mxCell id="ZgPAx6OOPj1dVpzJJ2Iv-46" value="" style="edgeStyle=orthogonalEdgeStyle;rounded=0;orthogonalLoop=1;jettySize=auto;html=1;endArrow=none;endFill=0;" parent="ZgPAx6OOPj1dVpzJJ2Iv-147" source="ZgPAx6OOPj1dVpzJJ2Iv-41" target="ZgPAx6OOPj1dVpzJJ2Iv-40" edge="1"><mxGeometry as="geometry"/></mxCell><mxCell id="ZgPAx6OOPj1dVpzJJ2Iv-41" value="id" style="ellipse;whiteSpace=wrap;html=1;align=center;" parent="ZgPAx6OOPj1dVpzJJ2Iv-147" vertex="1"><mxGeometry x="1107.9344262295083" y="396.89864802496663" width="86.55737704918033" height="35.27987982444149" as="geometry"/></mxCell><mxCell id="ZgPAx6OOPj1dVpzJJ2Iv-42" value="nombre" style="ellipse;whiteSpace=wrap;html=1;align=center;" parent="ZgPAx6OOPj1dVpzJJ2Iv-147" vertex="1"><mxGeometry x="1233.4426229508197" y="467.45840767384965" width="86.55737704918033" height="35.27987982444149" as="geometry"/></mxCell><mxCell id="ZgPAx6OOPj1dVpzJJ2Iv-45" value="" style="edgeStyle=orthogonalEdgeStyle;rounded=0;orthogonalLoop=1;jettySize=auto;html=1;endArrow=none;endFill=0;" parent="ZgPAx6OOPj1dVpzJJ2Iv-147" source="ZgPAx6OOPj1dVpzJJ2Iv-40" target="ZgPAx6OOPj1dVpzJJ2Iv-42" edge="1"><mxGeometry as="geometry"/></mxCell><mxCell id="ZgPAx6OOPj1dVpzJJ2Iv-44" value="" style="edgeStyle=orthogonalEdgeStyle;rounded=0;orthogonalLoop=1;jettySize=auto;html=1;endArrow=none;endFill=0;" parent="ZgPAx6OOPj1dVpzJJ2Iv-147" source="ZgPAx6OOPj1dVpzJJ2Iv-43" target="ZgPAx6OOPj1dVpzJJ2Iv-40" edge="1"><mxGeometry as="geometry"/></mxCell><mxCell id="ZgPAx6OOPj1dVpzJJ2Iv-50" value="id" style="ellipse;whiteSpace=wrap;html=1;align=center;" parent="ZgPAx6OOPj1dVpzJJ2Iv-147" vertex="1"><mxGeometry x="510.68245391685133" y="658.9031005465464" width="86.55737704918033" height="35.27987982444149" as="geometry"/></mxCell><mxCell id="ZgPAx6OOPj1dVpzJJ2Iv-54" value="" style="edgeStyle=orthogonalEdgeStyle;rounded=0;orthogonalLoop=1;jettySize=auto;html=1;entryX=1;entryY=0.5;entryDx=0;entryDy=0;endArrow=none;endFill=0;" parent="ZgPAx6OOPj1dVpzJJ2Iv-147" source="GvcpjSRphl_7P4JvngsX-19" target="ZgPAx6OOPj1dVpzJJ2Iv-53" edge="1"><mxGeometry as="geometry"><mxPoint x="385.18032786885243" y="582.1180171032844" as="sourcePoint"/><mxPoint x="73.57377049180332" y="582.1180171032844" as="targetPoint"/></mxGeometry></mxCell><mxCell id="ZgPAx6OOPj1dVpzJJ2Iv-58" value="" style="edgeStyle=orthogonalEdgeStyle;rounded=0;orthogonalLoop=1;jettySize=auto;html=1;endArrow=none;endFill=0;" parent="ZgPAx6OOPj1dVpzJJ2Iv-147" source="ZgPAx6OOPj1dVpzJJ2Iv-57" target="GvcpjSRphl_7P4JvngsX-57" edge="1"><mxGeometry as="geometry"/></mxCell><mxCell id="ZgPAx6OOPj1dVpzJJ2Iv-57" value="ubicacion&amp;nbsp;" style="ellipse;whiteSpace=wrap;html=1;align=center;" parent="ZgPAx6OOPj1dVpzJJ2Iv-147" vertex="1"><mxGeometry x="181.77049180327867" y="423.35855789329776" width="86.55737704918033" height="35.27987982444149" as="geometry"/></mxCell><mxCell id="ZgPAx6OOPj1dVpzJJ2Iv-59" value="ubicacion&amp;nbsp;" style="ellipse;whiteSpace=wrap;html=1;align=center;" parent="ZgPAx6OOPj1dVpzJJ2Iv-147" vertex="1"><mxGeometry x="302.95081967213116" y="423.35855789329776" width="86.55737704918033" height="35.27987982444149" as="geometry"/></mxCell><mxCell id="ZgPAx6OOPj1dVpzJJ2Iv-60" value="" style="edgeStyle=orthogonalEdgeStyle;rounded=0;orthogonalLoop=1;jettySize=auto;html=1;endArrow=none;endFill=0;" parent="ZgPAx6OOPj1dVpzJJ2Iv-147" source="GvcpjSRphl_7P4JvngsX-56" target="ZgPAx6OOPj1dVpzJJ2Iv-59" edge="1"><mxGeometry as="geometry"/></mxCell><mxCell id="ZgPAx6OOPj1dVpzJJ2Iv-61" value="codigoLitera" style="ellipse;whiteSpace=wrap;html=1;align=center;" parent="ZgPAx6OOPj1dVpzJJ2Iv-147" vertex="1"><mxGeometry x="424.1311475409836" y="423.35855789329776" width="86.55737704918033" height="35.27987982444149" as="geometry"/></mxCell><mxCell id="ZgPAx6OOPj1dVpzJJ2Iv-62" value="" style="edgeStyle=orthogonalEdgeStyle;rounded=0;orthogonalLoop=1;jettySize=auto;html=1;endArrow=none;endFill=0;" parent="ZgPAx6OOPj1dVpzJJ2Iv-147" source="GvcpjSRphl_7P4JvngsX-55" target="ZgPAx6OOPj1dVpzJJ2Iv-61" edge="1"><mxGeometry as="geometry"/></mxCell><mxCell id="ZgPAx6OOPj1dVpzJJ2Iv-64" value="numeroAsiento&amp;nbsp;" style="ellipse;whiteSpace=wrap;html=1;align=center;" parent="ZgPAx6OOPj1dVpzJJ2Iv-147" vertex="1"><mxGeometry x="302.95081967213116" y="79.37972960499337" width="86.55737704918033" height="35.27987982444149" as="geometry"/></mxCell><mxCell id="ZgPAx6OOPj1dVpzJJ2Iv-65" value="" style="edgeStyle=orthogonalEdgeStyle;rounded=0;orthogonalLoop=1;jettySize=auto;html=1;endArrow=none;endFill=0;" parent="ZgPAx6OOPj1dVpzJJ2Iv-147" source="GvcpjSRphl_7P4JvngsX-54" target="ZgPAx6OOPj1dVpzJJ2Iv-64" edge="1"><mxGeometry as="geometry"/></mxCell><mxCell id="ZgPAx6OOPj1dVpzJJ2Iv-107" style="edgeStyle=orthogonalEdgeStyle;rounded=0;orthogonalLoop=1;jettySize=auto;html=1;endArrow=none;endFill=0;" parent="ZgPAx6OOPj1dVpzJJ2Iv-147" source="ZgPAx6OOPj1dVpzJJ2Iv-68" target="GvcpjSRphl_7P4JvngsX-69" edge="1"><mxGeometry as="geometry"/></mxCell><mxCell id="ZgPAx6OOPj1dVpzJJ2Iv-112" style="edgeStyle=orthogonalEdgeStyle;rounded=0;orthogonalLoop=1;jettySize=auto;html=1;entryX=0.5;entryY=0;entryDx=0;entryDy=0;endArrow=none;endFill=0;" parent="ZgPAx6OOPj1dVpzJJ2Iv-147" source="ZgPAx6OOPj1dVpzJJ2Iv-68" target="ZgPAx6OOPj1dVpzJJ2Iv-5" edge="1"><mxGeometry as="geometry"/></mxCell><mxCell id="ZgPAx6OOPj1dVpzJJ2Iv-68" value="reserva" style="shape=rhombus;perimeter=rhombusPerimeter;whiteSpace=wrap;html=1;align=center;rotation=0;" parent="ZgPAx6OOPj1dVpzJJ2Iv-147" vertex="1"><mxGeometry x="363.54098360655735" y="511.55825745440154" width="103.8688524590164" height="105.83963947332444" as="geometry"/></mxCell><mxCell id="ZgPAx6OOPj1dVpzJJ2Iv-48" value="&lt;span style=&quot;border-bottom: 1px dotted&quot;&gt;duracion&lt;/span&gt;" style="ellipse;whiteSpace=wrap;html=1;align=center;" parent="ZgPAx6OOPj1dVpzJJ2Iv-147" vertex="1"><mxGeometry x="510.68824865046787" y="599.0469256875255" width="86.55737704918033" height="35.27987982444149" as="geometry"/></mxCell><mxCell id="GvcpjSRphl_7P4JvngsX-3" value="EntreDestinos" style="rounded=1;arcSize=10;whiteSpace=wrap;html=1;align=center;" parent="ZgPAx6OOPj1dVpzJJ2Iv-147" vertex="1"><mxGeometry x="924.3863922243539" y="670.3217329007074" width="86.55737704918033" height="35.27987982444149" as="geometry"/></mxCell><mxCell id="ZgPAx6OOPj1dVpzJJ2Iv-91" value="" style="edgeStyle=orthogonalEdgeStyle;rounded=0;orthogonalLoop=1;jettySize=auto;html=1;endArrow=none;endFill=0;" parent="ZgPAx6OOPj1dVpzJJ2Iv-147" source="ZgPAx6OOPj1dVpzJJ2Iv-36" target="GvcpjSRphl_7P4JvngsX-3" edge="1"><mxGeometry x="-140.2693454805642" y="79.38374584131257" as="geometry"/></mxCell><mxCell id="GvcpjSRphl_7P4JvngsX-4" value="suborbitales" style="rounded=1;arcSize=10;whiteSpace=wrap;html=1;align=center;" parent="ZgPAx6OOPj1dVpzJJ2Iv-147" vertex="1"><mxGeometry x="924.3863922243539" y="716.397255951428" width="86.55737704918033" height="35.27987982444149" as="geometry"/></mxCell><mxCell id="GvcpjSRphl_7P4JvngsX-5" value="Orbitales" style="rounded=1;arcSize=10;whiteSpace=wrap;html=1;align=center;" parent="ZgPAx6OOPj1dVpzJJ2Iv-147" vertex="1"><mxGeometry x="924.3863922243539" y="626.2218831201556" width="86.55737704918033" height="35.27987982444149" as="geometry"/></mxCell><mxCell id="ZgPAx6OOPj1dVpzJJ2Iv-105" style="edgeStyle=orthogonalEdgeStyle;rounded=0;orthogonalLoop=1;jettySize=auto;html=1;entryX=1;entryY=0.5;entryDx=0;entryDy=0;endArrow=none;endFill=0;" parent="ZgPAx6OOPj1dVpzJJ2Iv-147" source="GvcpjSRphl_7P4JvngsX-8" target="ZgPAx6OOPj1dVpzJJ2Iv-68" edge="1"><mxGeometry as="geometry"/></mxCell><mxCell id="GvcpjSRphl_7P4JvngsX-8" value="vuelo" style="rounded=1;arcSize=10;whiteSpace=wrap;html=1;align=center;" parent="ZgPAx6OOPj1dVpzJJ2Iv-147" vertex="1"><mxGeometry x="605.9016393442623" y="546.838137278843" width="86.55737704918033" height="35.27987982444149" as="geometry"/></mxCell><mxCell id="ZgPAx6OOPj1dVpzJJ2Iv-92" style="edgeStyle=orthogonalEdgeStyle;rounded=0;orthogonalLoop=1;jettySize=auto;html=1;entryX=0;entryY=0.5;entryDx=0;entryDy=0;endArrow=none;endFill=0;" parent="ZgPAx6OOPj1dVpzJJ2Iv-147" source="GvcpjSRphl_7P4JvngsX-50" target="GvcpjSRphl_7P4JvngsX-4" edge="1"><mxGeometry x="-140.2693454805642" y="79.38374584131257" as="geometry"><Array as="points"><mxPoint x="794.5503266505834" y="733.8255165847021"/></Array></mxGeometry></mxCell><mxCell id="ZgPAx6OOPj1dVpzJJ2Iv-93" value="" style="edgeStyle=orthogonalEdgeStyle;rounded=0;orthogonalLoop=1;jettySize=auto;html=1;endArrow=none;endFill=0;" parent="ZgPAx6OOPj1dVpzJJ2Iv-147" source="GvcpjSRphl_7P4JvngsX-50" target="GvcpjSRphl_7P4JvngsX-5" edge="1"><mxGeometry x="-140.2693454805642" y="79.38374584131257" as="geometry"/></mxCell><mxCell id="GvcpjSRphl_7P4JvngsX-50" value="Tipo" style="whiteSpace=wrap;html=1;align=center;" parent="ZgPAx6OOPj1dVpzJJ2Iv-147" vertex="1"><mxGeometry x="663.9457383634106" y="626.2218831201556" width="69.24590163934427" height="35.27987982444149" as="geometry"/></mxCell><mxCell id="GvcpjSRphl_7P4JvngsX-46" style="edgeStyle=orthogonalEdgeStyle;rounded=0;orthogonalLoop=1;jettySize=auto;html=1;endArrow=none;endFill=0;startArrow=none;" parent="ZgPAx6OOPj1dVpzJJ2Iv-147" source="GvcpjSRphl_7P4JvngsX-50" target="GvcpjSRphl_7P4JvngsX-3" edge="1"><mxGeometry x="560.8454086177965" y="546.8421535151622" as="geometry"><mxPoint x="725.3044250112391" y="582.1220333396038" as="sourcePoint"/><Array as="points"><mxPoint x="794.5503266505834" y="696.7816427690386"/></Array></mxGeometry></mxCell><mxCell id="ZgPAx6OOPj1dVpzJJ2Iv-139" style="edgeStyle=orthogonalEdgeStyle;rounded=0;orthogonalLoop=1;jettySize=auto;html=1;entryX=0.5;entryY=1;entryDx=0;entryDy=0;endArrow=none;endFill=0;" parent="ZgPAx6OOPj1dVpzJJ2Iv-147" source="ZgPAx6OOPj1dVpzJJ2Iv-50" target="GvcpjSRphl_7P4JvngsX-8" edge="1"><mxGeometry relative="1" as="geometry"><Array as="points"><mxPoint x="648.979505090077" y="676.538945472716"/></Array></mxGeometry></mxCell><mxCell id="ZgPAx6OOPj1dVpzJJ2Iv-89" value="" style="edgeStyle=orthogonalEdgeStyle;rounded=0;orthogonalLoop=1;jettySize=auto;html=1;endArrow=none;endFill=0;" parent="ZgPAx6OOPj1dVpzJJ2Iv-147" source="ZgPAx6OOPj1dVpzJJ2Iv-71" target="GvcpjSRphl_7P4JvngsX-8" edge="1"><mxGeometry as="geometry"/></mxCell><mxCell id="ZgPAx6OOPj1dVpzJJ2Iv-97" value="tour" style="rounded=1;arcSize=10;whiteSpace=wrap;html=1;align=center;" parent="ZgPAx6OOPj1dVpzJJ2Iv-147" vertex="1"><mxGeometry x="924.3863922243539" y="758.5214324618111" width="86.55737704918033" height="35.27987982444149" as="geometry"/></mxCell><mxCell id="ZgPAx6OOPj1dVpzJJ2Iv-98" style="edgeStyle=orthogonalEdgeStyle;rounded=0;orthogonalLoop=1;jettySize=auto;html=1;entryX=0;entryY=0.5;entryDx=0;entryDy=0;endArrow=none;endFill=0;" parent="ZgPAx6OOPj1dVpzJJ2Iv-147" source="GvcpjSRphl_7P4JvngsX-50" target="ZgPAx6OOPj1dVpzJJ2Iv-97" edge="1"><mxGeometry x="-140.2693454805642" y="79.38374584131257" as="geometry"><Array as="points"><mxPoint x="794.5503266505834" y="776.161372374032"/></Array></mxGeometry></mxCell><mxCell id="GvcpjSRphl_7P4JvngsX-19" value="Equipos" style="rounded=1;arcSize=10;whiteSpace=wrap;html=1;align=center;" parent="ZgPAx6OOPj1dVpzJJ2Iv-147" vertex="1"><mxGeometry x="605.9016393442623" y="185.21936907831775" width="86.55737704918033" height="35.27987982444149" as="geometry"/></mxCell><mxCell id="ZgPAx6OOPj1dVpzJJ2Iv-88" value="" style="edgeStyle=orthogonalEdgeStyle;rounded=0;orthogonalLoop=1;jettySize=auto;html=1;endArrow=none;endFill=0;" parent="ZgPAx6OOPj1dVpzJJ2Iv-147" source="GvcpjSRphl_7P4JvngsX-19" target="ZgPAx6OOPj1dVpzJJ2Iv-71" edge="1"><mxGeometry as="geometry"/></mxCell><mxCell id="GvcpjSRphl_7P4JvngsX-22" value="altaAceleracion&amp;nbsp;" style="rounded=1;arcSize=10;whiteSpace=wrap;html=1;align=center;" parent="ZgPAx6OOPj1dVpzJJ2Iv-147" vertex="1"><mxGeometry x="709.7704918032787" width="86.55737704918033" height="35.27987982444149" as="geometry"/></mxCell><mxCell id="GvcpjSRphl_7P4JvngsX-20" value="Orbitales" style="rounded=1;arcSize=10;whiteSpace=wrap;html=1;align=center;" parent="ZgPAx6OOPj1dVpzJJ2Iv-147" vertex="1"><mxGeometry x="502.0327868852459" width="86.55737704918033" height="35.27987982444149" as="geometry"/></mxCell><mxCell id="GvcpjSRphl_7P4JvngsX-21" value="bajaAceleracion" style="rounded=1;arcSize=10;whiteSpace=wrap;html=1;align=center;" parent="ZgPAx6OOPj1dVpzJJ2Iv-147" vertex="1"><mxGeometry x="605.9016393442623" width="86.55737704918033" height="35.27987982444149" as="geometry"/></mxCell><mxCell id="ZgPAx6OOPj1dVpzJJ2Iv-75" style="edgeStyle=orthogonalEdgeStyle;rounded=0;orthogonalLoop=1;jettySize=auto;html=1;entryX=0.5;entryY=1;entryDx=0;entryDy=0;endArrow=none;endFill=0;" parent="ZgPAx6OOPj1dVpzJJ2Iv-147" source="GvcpjSRphl_7P4JvngsX-42" target="GvcpjSRphl_7P4JvngsX-22" edge="1"><mxGeometry as="geometry"/></mxCell><mxCell id="ZgPAx6OOPj1dVpzJJ2Iv-77" style="edgeStyle=orthogonalEdgeStyle;rounded=0;orthogonalLoop=1;jettySize=auto;html=1;entryX=0.5;entryY=1;entryDx=0;entryDy=0;endArrow=none;endFill=0;" parent="ZgPAx6OOPj1dVpzJJ2Iv-147" source="GvcpjSRphl_7P4JvngsX-42" target="GvcpjSRphl_7P4JvngsX-20" edge="1"><mxGeometry as="geometry"/></mxCell><mxCell id="GvcpjSRphl_7P4JvngsX-42" value="Tipo" style="whiteSpace=wrap;html=1;align=center;" parent="ZgPAx6OOPj1dVpzJJ2Iv-147" vertex="1"><mxGeometry x="614.5573770491803" y="97.01966951721413" width="69.24590163934427" height="35.27987982444149" as="geometry"/></mxCell><mxCell id="ZgPAx6OOPj1dVpzJJ2Iv-114" value="" style="edgeStyle=orthogonalEdgeStyle;rounded=0;orthogonalLoop=1;jettySize=auto;html=1;endArrow=none;endFill=0;" parent="ZgPAx6OOPj1dVpzJJ2Iv-147" source="GvcpjSRphl_7P4JvngsX-21" target="GvcpjSRphl_7P4JvngsX-42" edge="1"><mxGeometry as="geometry"/></mxCell><mxCell id="ZgPAx6OOPj1dVpzJJ2Iv-73" value="" style="edgeStyle=orthogonalEdgeStyle;rounded=0;orthogonalLoop=1;jettySize=auto;html=1;endArrow=none;endFill=0;" parent="ZgPAx6OOPj1dVpzJJ2Iv-147" source="GvcpjSRphl_7P4JvngsX-19" target="GvcpjSRphl_7P4JvngsX-42" edge="1"><mxGeometry as="geometry"/></mxCell><mxCell id="ZgPAx6OOPj1dVpzJJ2Iv-117" value="N" style="text;html=1;align=center;verticalAlign=middle;resizable=0;points=[];autosize=1;strokeColor=none;fillColor=none;" parent="ZgPAx6OOPj1dVpzJJ2Iv-147" vertex="1"><mxGeometry x="458.7555700390345" y="571.8850407103661" width="20" height="20" as="geometry"/></mxCell><mxCell id="ZgPAx6OOPj1dVpzJJ2Iv-118" value="N" style="text;html=1;align=center;verticalAlign=middle;resizable=0;points=[];autosize=1;strokeColor=none;fillColor=none;" parent="ZgPAx6OOPj1dVpzJJ2Iv-147" vertex="1"><mxGeometry x="424.1277442847326" y="607.1603530503661" width="20" height="20" as="geometry"/></mxCell><mxCell id="ZgPAx6OOPj1dVpzJJ2Iv-119" value="N" style="text;html=1;align=center;verticalAlign=middle;resizable=0;points=[];autosize=1;strokeColor=none;fillColor=none;" parent="ZgPAx6OOPj1dVpzJJ2Iv-147" vertex="1"><mxGeometry x="345.99771885205837" y="571.7230525121544" width="20" height="20" as="geometry"/></mxCell><mxCell id="ZgPAx6OOPj1dVpzJJ2Iv-120" value="1" style="text;html=1;align=center;verticalAlign=middle;resizable=0;points=[];autosize=1;strokeColor=none;fillColor=none;" parent="ZgPAx6OOPj1dVpzJJ2Iv-147" vertex="1"><mxGeometry x="196.3770836727899" y="571.7230525121544" width="20" height="20" as="geometry"/></mxCell><mxCell id="ZgPAx6OOPj1dVpzJJ2Iv-121" value="1" style="text;html=1;align=center;verticalAlign=middle;resizable=0;points=[];autosize=1;strokeColor=none;fillColor=none;" parent="ZgPAx6OOPj1dVpzJJ2Iv-147" vertex="1"><mxGeometry x="579.7799613196654" y="562.1943349702851" width="20" height="20" as="geometry"/></mxCell><mxCell id="ZgPAx6OOPj1dVpzJJ2Iv-122" value="1" style="text;html=1;align=center;verticalAlign=middle;resizable=0;points=[];autosize=1;strokeColor=none;fillColor=none;" parent="ZgPAx6OOPj1dVpzJJ2Iv-147" vertex="1"><mxGeometry x="657.83517643475" y="524.0794648028082" width="20" height="20" as="geometry"/></mxCell><mxCell id="ZgPAx6OOPj1dVpzJJ2Iv-123" value="N" style="text;html=1;align=center;verticalAlign=middle;resizable=0;points=[];autosize=1;strokeColor=none;fillColor=none;" parent="ZgPAx6OOPj1dVpzJJ2Iv-147" vertex="1"><mxGeometry x="663.9415686080039" y="228.68922100486174" width="20" height="20" as="geometry"/></mxCell><mxCell id="ZgPAx6OOPj1dVpzJJ2Iv-126" value="1" style="text;html=1;align=center;verticalAlign=middle;resizable=0;points=[];autosize=1;strokeColor=none;fillColor=none;" parent="ZgPAx6OOPj1dVpzJJ2Iv-147" vertex="1"><mxGeometry x="570.4286716209612" y="209.63178592112325" width="20" height="20" as="geometry"/></mxCell><mxCell id="ZgPAx6OOPj1dVpzJJ2Iv-127" value="n" style="text;html=1;align=center;verticalAlign=middle;resizable=0;points=[];autosize=1;strokeColor=none;fillColor=none;" parent="ZgPAx6OOPj1dVpzJJ2Iv-147" vertex="1"><mxGeometry x="402.10545704428404" y="209.63178592112325" width="20" height="20" as="geometry"/></mxCell><mxCell id="ZgPAx6OOPj1dVpzJJ2Iv-128" value="N" style="text;html=1;align=center;verticalAlign=middle;resizable=0;points=[];autosize=1;strokeColor=none;fillColor=none;" parent="ZgPAx6OOPj1dVpzJJ2Iv-147" vertex="1"><mxGeometry x="420.8080364416926" y="667.0102279308468" width="20" height="20" as="geometry"/></mxCell><mxCell id="ZgPAx6OOPj1dVpzJJ2Iv-129" value="N" style="text;html=1;align=center;verticalAlign=middle;resizable=0;points=[];autosize=1;strokeColor=none;fillColor=none;" parent="ZgPAx6OOPj1dVpzJJ2Iv-147" vertex="1"><mxGeometry x="420.8080364416926" y="733.7112507239315" width="20" height="20" as="geometry"/></mxCell><mxCell id="ZgPAx6OOPj1dVpzJJ2Iv-130" value="1" style="text;html=1;align=center;verticalAlign=middle;resizable=0;points=[];autosize=1;strokeColor=none;fillColor=none;" parent="ZgPAx6OOPj1dVpzJJ2Iv-147" vertex="1"><mxGeometry x="424.1277442847326" y="870.5817494953412" width="20" height="20" as="geometry"/></mxCell><mxCell id="ZgPAx6OOPj1dVpzJJ2Iv-132" value="realiza" style="shape=rhombus;perimeter=rhombusPerimeter;whiteSpace=wrap;html=1;align=center;" parent="ZgPAx6OOPj1dVpzJJ2Iv-147" vertex="1"><mxGeometry x="363.2695509255652" y="752.76868580767" width="103.8688524590164" height="52.91981973666222" as="geometry"/></mxCell><mxCell id="ZgPAx6OOPj1dVpzJJ2Iv-133" value="1" style="text;html=1;align=center;verticalAlign=middle;resizable=0;points=[];autosize=1;strokeColor=none;fillColor=none;" parent="ZgPAx6OOPj1dVpzJJ2Iv-147" vertex="1"><mxGeometry x="392.7541673455798" y="939.0074701635042" width="20" height="20" as="geometry"/></mxCell><mxCell id="ZgPAx6OOPj1dVpzJJ2Iv-134" value="1" style="text;html=1;align=center;verticalAlign=middle;resizable=0;points=[];autosize=1;strokeColor=none;fillColor=none;" parent="ZgPAx6OOPj1dVpzJJ2Iv-147" vertex="1"><mxGeometry x="289.8899806598327" y="958.0649052472427" width="20" height="20" as="geometry"/></mxCell><mxCell id="ZgPAx6OOPj1dVpzJJ2Iv-135" value="n" style="text;html=1;align=center;verticalAlign=middle;resizable=0;points=[];autosize=1;strokeColor=none;fillColor=none;" parent="ZgPAx6OOPj1dVpzJJ2Iv-147" vertex="1"><mxGeometry x="458.21319523650976" y="919.9500350797657" width="20" height="20" as="geometry"/></mxCell><mxCell id="ZgPAx6OOPj1dVpzJJ2Iv-140" style="edgeStyle=orthogonalEdgeStyle;rounded=0;orthogonalLoop=1;jettySize=auto;html=1;entryX=0.5;entryY=1;entryDx=0;entryDy=0;endArrow=none;endFill=0;" parent="ZgPAx6OOPj1dVpzJJ2Iv-147" source="ZgPAx6OOPj1dVpzJJ2Iv-48" target="GvcpjSRphl_7P4JvngsX-8" edge="1"><mxGeometry relative="1" as="geometry"/></mxCell><mxCell id="ZgPAx6OOPj1dVpzJJ2Iv-137" style="edgeStyle=orthogonalEdgeStyle;rounded=0;orthogonalLoop=1;jettySize=auto;html=1;exitX=0.5;exitY=1;exitDx=0;exitDy=0;endArrow=none;endFill=0;" parent="ZgPAx6OOPj1dVpzJJ2Iv-147" source="GvcpjSRphl_7P4JvngsX-13" target="GvcpjSRphl_7P4JvngsX-13" edge="1"><mxGeometry relative="1" as="geometry"/></mxCell><mxCell id="ZgPAx6OOPj1dVpzJJ2Iv-138" value="N" style="text;html=1;align=center;verticalAlign=middle;resizable=0;points=[];autosize=1;strokeColor=none;fillColor=none;" parent="ZgPAx6OOPj1dVpzJJ2Iv-147" vertex="1"><mxGeometry x="657.83517643475" y="915.776456796427" width="20" height="20" as="geometry"/></mxCell><mxCell id="ZgPAx6OOPj1dVpzJJ2Iv-146" style="edgeStyle=orthogonalEdgeStyle;rounded=0;orthogonalLoop=1;jettySize=auto;html=1;entryX=0.5;entryY=0;entryDx=0;entryDy=0;endArrow=none;endFill=0;" parent="ZgPAx6OOPj1dVpzJJ2Iv-147" source="GvcpjSRphl_7P4JvngsX-8" target="GvcpjSRphl_7P4JvngsX-50" edge="1"><mxGeometry relative="1" as="geometry"><Array as="points"><mxPoint x="682.6441480054125" y="604.1206921545098"/><mxPoint x="698.5413404932098" y="604.1206921545098"/></Array></mxGeometry></mxCell><mxCell id="ZgPAx6OOPj1dVpzJJ2Iv-141" style="edgeStyle=orthogonalEdgeStyle;rounded=0;orthogonalLoop=1;jettySize=auto;html=1;entryX=1;entryY=0.5;entryDx=0;entryDy=0;endArrow=none;endFill=0;" parent="ZgPAx6OOPj1dVpzJJ2Iv-147" source="ZgPAx6OOPj1dVpzJJ2Iv-43" target="GvcpjSRphl_7P4JvngsX-8" edge="1"><mxGeometry relative="1" as="geometry"/></mxCell><mxCell id="ZgPAx6OOPj1dVpzJJ2Iv-142" value="N" style="edgeLabel;html=1;align=center;verticalAlign=middle;resizable=0;points=[];" parent="ZgPAx6OOPj1dVpzJJ2Iv-141" vertex="1" connectable="0"><mxGeometry x="0.8523" y="-4" relative="1" as="geometry"><mxPoint x="-5" y="-8" as="offset"/></mxGeometry></mxCell><mxCell id="ZgPAx6OOPj1dVpzJJ2Iv-143" value="N" style="text;html=1;align=center;verticalAlign=middle;resizable=0;points=[];autosize=1;strokeColor=none;fillColor=none;" parent="ZgPAx6OOPj1dVpzJJ2Iv-147" vertex="1"><mxGeometry x="1084.7496050496966" y="485.9645946353312" width="20" height="20" as="geometry"/></mxCell><mxCell id="ZgPAx6OOPj1dVpzJJ2Iv-19" value="nombre" style="ellipse;whiteSpace=wrap;html=1;align=center;" parent="ZgPAx6OOPj1dVpzJJ2Iv-147" vertex="1"><mxGeometry x="635.8904282488851" y="966.8786539745448" width="86.55737704918033" height="35.27987982444149" as="geometry"/></mxCell><mxCell id="ZgPAx6OOPj1dVpzJJ2Iv-145" style="edgeStyle=orthogonalEdgeStyle;rounded=0;orthogonalLoop=1;jettySize=auto;html=1;endArrow=none;endFill=0;" parent="ZgPAx6OOPj1dVpzJJ2Iv-147" source="GvcpjSRphl_7P4JvngsX-13" target="ZgPAx6OOPj1dVpzJJ2Iv-19" edge="1"><mxGeometry relative="1" as="geometry"/></mxCell><mxCell id="FrlxWMnYt9ofsfjpKhjb-2" value="direccion" style="ellipse;whiteSpace=wrap;html=1;align=center;" parent="ZgPAx6OOPj1dVpzJJ2Iv-147" vertex="1"><mxGeometry x="856.0046149346322" y="891.4537727071086" width="86.55737704918033" height="35.27987982444149" as="geometry"/></mxCell><mxCell id="9GmSukUroKzxp-_hn4rb-2" value="Administrador" style="rounded=1;arcSize=10;whiteSpace=wrap;html=1;align=center;" parent="1" vertex="1"><mxGeometry x="470" y="-280" width="100" height="40" as="geometry"/></mxCell><mxCell id="9GmSukUroKzxp-_hn4rb-3" value="Cliente" style="rounded=1;arcSize=10;whiteSpace=wrap;html=1;align=center;" parent="1" vertex="1"><mxGeometry x="610" y="-280" width="100" height="40" as="geometry"/></mxCell><mxCell id="9GmSukUroKzxp-_hn4rb-4" value="visitante" style="rounded=1;arcSize=10;whiteSpace=wrap;html=1;align=center;" parent="1" vertex="1"><mxGeometry x="320" y="-280" width="100" height="40" as="geometry"/></mxCell><mxCell id="2" style="edgeStyle=orthogonalEdgeStyle;rounded=0;orthogonalLoop=1;jettySize=auto;html=1;exitX=0.5;exitY=1;exitDx=0;exitDy=0;" edge="1" parent="1" source="ZgPAx6OOPj1dVpzJJ2Iv-97"><mxGeometry relative="1" as="geometry"><mxPoint x="-310" y="-290" as="targetPoint"/></mxGeometry></mxCell></root></mxGraphModel></diagram><diagram id="y0Z5rH72rmLLccg5UqdB" name="DB Entitys"><mxGraphModel dx="1086" dy="816" grid="1" gridSize="10" guides="1" tooltips="1" connect="1" arrows="1" fold="1" page="1" pageScale="1" pageWidth="850" pageHeight="1100" math="0" shadow="0"><root><mxCell id="_eXw3-799kL9YY1z2YFw-0"/><mxCell id="_eXw3-799kL9YY1z2YFw-1" parent="_eXw3-799kL9YY1z2YFw-0"/><mxCell id="_eXw3-799kL9YY1z2YFw-6" value="UsuarioRegistro" style="swimlane;childLayout=stackLayout;horizontal=1;startSize=30;horizontalStack=0;rounded=1;fontSize=14;fontStyle=0;strokeWidth=2;resizeParent=0;resizeLast=1;shadow=0;dashed=0;align=center;" parent="_eXw3-799kL9YY1z2YFw-1" vertex="1"><mxGeometry x="40" y="70" width="160" height="120" as="geometry"/></mxCell><mxCell id="_eXw3-799kL9YY1z2YFw-7" value="+Nombre&#10;+Apellido&#10;+FechaNacimiento&#10;+Email&#10;+Password" style="align=left;strokeColor=none;fillColor=none;spacingLeft=4;fontSize=12;verticalAlign=top;resizable=0;rotatable=0;part=1;" parent="_eXw3-799kL9YY1z2YFw-6" vertex="1"><mxGeometry y="30" width="160" height="90" as="geometry"/></mxCell></root></mxGraphModel></diagram></mxfile>